<svg width="13" height="12" viewBox="0 0 13 12" fill="none" xmlns="http://www.w3.org/2000/svg">
<path d="M4.22222 11.6665L3.16667 9.88873L1.16667 9.44428L1.36111 7.38873L0 5.83317L1.36111 4.27762L1.16667 2.22206L3.16667 1.77761L4.22222 -0.000163078L6.11111 0.805392L8 -0.000163078L9.05556 1.77761L11.0556 2.22206L10.8611 4.27762L12.2222 5.83317L10.8611 7.38873L11.0556 9.44428L9.05556 9.88873L8 11.6665L6.11111 10.8609L4.22222 11.6665ZM4.69444 10.2498L6.11111 9.63873L7.55556 10.2498L8.33333 8.9165L9.86111 8.55539L9.72222 6.99984L10.75 5.83317L9.72222 4.63873L9.86111 3.08317L8.33333 2.74984L7.52778 1.4165L6.11111 2.02761L4.66667 1.4165L3.88889 2.74984L2.36111 3.08317L2.5 4.63873L1.47222 5.83317L2.5 6.99984L2.36111 8.58317L3.88889 8.9165L4.69444 10.2498ZM5.52778 7.80539L8.66667 4.6665L7.88889 3.86095L5.52778 6.22206L4.33333 5.05539L3.55556 5.83317L5.52778 7.80539Z" fill="#4BE277"/>
</svg>
