<svg width="25" height="18" viewBox="0 0 25 18" fill="none" xmlns="http://www.w3.org/2000/svg">
<path d="M3.16875 17.5C2.10625 17.5 1.28333 17.1302 0.7 16.3906C0.116667 15.651 -0.102083 14.75 0.04375 13.6875L1.35625 4.3125C1.54375 3.0625 2.10104 2.03125 3.02813 1.21875C3.95521 0.40625 5.04375 0 6.29375 0H18.6688C19.9188 0 21.0073 0.40625 21.9344 1.21875C22.8615 2.03125 23.4188 3.0625 23.6063 4.3125L24.9188 13.6875C25.0646 14.75 24.8458 15.651 24.2625 16.3906C23.6792 17.1302 22.8563 17.5 21.7938 17.5C21.3563 17.5 20.95 17.4219 20.575 17.2656C20.2 17.1094 19.8563 16.875 19.5438 16.5625L16.7313 13.75H8.23125L5.41875 16.5625C5.10625 16.875 4.7625 17.1094 4.3875 17.2656C4.0125 17.4219 3.60625 17.5 3.16875 17.5ZM3.66875 14.8125L7.23125 11.25H17.7313L21.2938 14.8125C21.3354 14.8542 21.5021 14.9167 21.7938 15C22.0229 15 22.2052 14.9323 22.3406 14.7969C22.476 14.6615 22.5229 14.4792 22.4813 14.25L21.1063 4.625C21.0229 4.02083 20.7521 3.51562 20.2938 3.10938C19.8354 2.70312 19.2938 2.5 18.6688 2.5H6.29375C5.66875 2.5 5.12708 2.70312 4.66875 3.10938C4.21042 3.51562 3.93958 4.02083 3.85625 4.625L2.48125 14.25C2.43958 14.4792 2.48646 14.6615 2.62188 14.7969C2.75729 14.9323 2.93958 15 3.16875 15C3.21042 15 3.37708 14.9375 3.66875 14.8125ZM18.7313 10C18.7313 10 18.8198 10 18.9969 10C19.174 10 19.3823 9.88021 19.6219 9.64062C19.8615 9.40104 19.9813 9.10417 19.9813 8.75C19.9813 8.39583 19.8615 8.09896 19.6219 7.85938C19.3823 7.61979 19.0854 7.5 18.7313 7.5C18.3771 7.5 18.0802 7.61979 17.8406 7.85938C17.601 8.09896 17.4813 8.39583 17.4813 8.75C17.4813 9.10417 17.601 9.40104 17.8406 9.64062C18.0802 9.88021 18.3771 10 18.7313 10ZM16.2313 6.25C16.2313 6.25 16.3198 6.25 16.4969 6.25C16.674 6.25 16.8823 6.13021 17.1219 5.89062C17.3615 5.65104 17.4813 5.35417 17.4813 5C17.4813 4.64583 17.3615 4.34896 17.1219 4.10938C16.8823 3.86979 16.5854 3.75 16.2313 3.75C15.8771 3.75 15.5802 3.86979 15.3406 4.10938C15.101 4.34896 14.9812 4.64583 14.9812 5C14.9812 5.35417 15.101 5.65104 15.3406 5.89062C15.5802 6.13021 15.8771 6.25 16.2313 6.25ZM7.16875 10H9.04375V7.8125H11.2312V5.9375H9.04375V3.75H7.16875V5.9375H4.98125V7.8125H7.16875V10Z" fill="#4BE277"/>
</svg>
