<svg width="25" height="28" viewBox="0 0 25 28" fill="none" xmlns="http://www.w3.org/2000/svg">
<path d="M10.5031 17.4028C10.5031 17.4028 10.6003 17.5001 10.7947 17.6945C10.9892 17.8889 11.3943 17.9821 12.01 17.974C12.6257 17.9659 13.0794 17.7431 13.3711 17.3056L18.8156 9.13894L10.6489 14.5834C10.2114 14.8751 9.98049 15.3207 9.95618 15.9202C9.93188 16.5197 10.1142 17.0139 10.5031 17.4028ZM12.01 6.22228C12.966 6.22228 13.8856 6.35596 14.7687 6.62332C15.6518 6.89068 16.4822 7.29172 17.26 7.82644L15.4128 8.99311C14.8781 8.71765 14.3231 8.51105 13.7478 8.37332C13.1726 8.23559 12.5933 8.16672 12.01 8.16672C9.85491 8.16672 8.01984 8.92424 6.50479 10.4393C4.98975 11.9543 4.23223 13.7894 4.23223 15.9445C4.23223 16.6251 4.3254 17.2975 4.51174 17.9619C4.69808 18.6262 4.96139 19.2501 5.30167 19.8334H18.7183C19.091 19.2176 19.3624 18.5776 19.5326 17.9132C19.7027 17.2489 19.7878 16.5602 19.7878 15.8473C19.7878 15.2639 19.7189 14.6968 19.5812 14.1459C19.4435 13.595 19.2369 13.0602 18.9614 12.5417L20.1281 10.6945C20.6142 11.4561 20.999 12.2663 21.2826 13.1251C21.5661 13.9839 21.716 14.8751 21.7322 15.7987C21.7484 16.7223 21.6431 17.6054 21.4163 18.448C21.1894 19.2906 20.8572 20.0926 20.4197 20.8542C20.2415 21.1459 19.9984 21.3727 19.6906 21.5348C19.3827 21.6968 19.0586 21.7778 18.7183 21.7778H5.30167C4.96139 21.7778 4.63732 21.6968 4.32945 21.5348C4.02158 21.3727 3.77852 21.1459 3.60028 20.8542C3.17898 20.1251 2.85491 19.3513 2.62806 18.533C2.40121 17.7148 2.28778 16.8519 2.28778 15.9445C2.28778 14.5996 2.54299 13.3398 3.05341 12.165C3.56382 10.9902 4.26058 9.96128 5.14368 9.07818C6.02679 8.19508 7.05977 7.49832 8.24264 6.9879C9.42551 6.47748 10.6813 6.22228 12.01 6.22228Z" fill="#4BE277"/>
</svg>
