<svg width="20" height="20" viewBox="0 0 20 20" fill="none" xmlns="http://www.w3.org/2000/svg">
<path d="M9.72222 19.4443C8.37731 19.4443 7.11343 19.1891 5.93056 18.6787C4.74769 18.1683 3.71875 17.4756 2.84375 16.6006C1.96875 15.7256 1.27604 14.6967 0.765625 13.5138C0.255208 12.3309 0 11.067 0 9.72211C0 8.37721 0.255208 7.11332 0.765625 5.93045C1.27604 4.74758 1.96875 3.71864 2.84375 2.84364C3.71875 1.96864 4.74769 1.27593 5.93056 0.765516C7.11343 0.2551 8.37731 -0.000108719 9.72222 -0.000108719C11.0671 -0.000108719 12.331 0.2551 13.5139 0.765516C14.6968 1.27593 15.7257 1.96864 16.6007 2.84364C17.4757 3.71864 18.1684 4.74758 18.6788 5.93045C19.1892 7.11332 19.4444 8.37721 19.4444 9.72211V11.1318C19.4444 12.0879 19.1163 12.9021 18.4601 13.5745C17.8038 14.247 16.9977 14.5832 16.0417 14.5832C15.4745 14.5832 14.9398 14.4617 14.4375 14.2186C13.9352 13.9756 13.5139 13.6272 13.1736 13.1735C12.7037 13.6434 12.173 13.9958 11.5816 14.2308C10.9902 14.4657 10.3704 14.5832 9.72222 14.5832C8.37731 14.5832 7.2309 14.1093 6.28299 13.1613C5.33507 12.2134 4.86111 11.067 4.86111 9.72211C4.86111 8.37721 5.33507 7.23079 6.28299 6.28288C7.2309 5.33496 8.37731 4.861 9.72222 4.861C11.0671 4.861 12.2135 5.33496 13.1615 6.28288C14.1094 7.23079 14.5833 8.37721 14.5833 9.72211V11.1318C14.5833 11.5531 14.7211 11.9096 14.9965 12.2013C15.272 12.4929 15.6204 12.6388 16.0417 12.6388C16.463 12.6388 16.8113 12.4929 17.0868 12.2013C17.3623 11.9096 17.5 11.5531 17.5 11.1318V9.72211C17.5 7.55082 16.7465 5.7117 15.2396 4.20475C13.7326 2.69781 11.8935 1.94434 9.72222 1.94434C7.55093 1.94434 5.71181 2.69781 4.20486 4.20475C2.69792 5.7117 1.94444 7.55082 1.94444 9.72211C1.94444 11.8934 2.69792 13.7325 4.20486 15.2395C5.71181 16.7464 7.55093 17.4999 9.72222 17.4999H14.5833V19.4443H9.72222ZM9.72222 12.6388C9.72222 12.6388 9.92477 12.6388 10.3299 12.6388C10.735 12.6388 11.2211 12.3552 11.7882 11.7881C12.3553 11.221 12.6389 10.5323 12.6389 9.72211C12.6389 8.91193 12.3553 8.22327 11.7882 7.65614C11.2211 7.08901 10.5324 6.80545 9.72222 6.80545C8.91204 6.80545 8.22338 7.08901 7.65625 7.65614C7.08912 8.22327 6.80556 8.91193 6.80556 9.72211C6.80556 10.5323 7.08912 11.221 7.65625 11.7881C8.22338 12.3552 8.91204 12.6388 9.72222 12.6388Z" fill="#64748B"/>
</svg>
