<svg width="20" height="14" viewBox="0 0 20 14" fill="none" xmlns="http://www.w3.org/2000/svg">
<path d="M2.84375 13.7568C1.96875 12.8656 1.27604 11.8326 0.765625 10.6579C0.255208 9.48311 0 8.22327 0 6.87836C0 5.51725 0.255208 4.24931 0.765625 3.07454C1.27604 1.89978 1.96875 0.874891 2.84375 -0.000108719L4.22917 1.38531C3.5162 2.09827 2.95718 2.92466 2.55208 3.86447C2.14699 4.80429 1.94444 5.80892 1.94444 6.87836C1.94444 7.96401 2.14699 8.97674 2.55208 9.91656C2.95718 10.8564 3.5162 11.6747 4.22917 12.3714L2.84375 13.7568ZM5.59028 11.0103C5.07176 10.4756 4.65857 9.85579 4.35069 9.15093C4.04282 8.44607 3.88889 7.68855 3.88889 6.87836C3.88889 6.05197 4.04282 5.28635 4.35069 4.58149C4.65857 3.87663 5.07176 3.26494 5.59028 2.74642L6.97569 4.13184C6.61921 4.48832 6.3397 4.90151 6.13715 5.37142C5.93461 5.84133 5.83333 6.34364 5.83333 6.87836C5.83333 7.41309 5.93461 7.9154 6.13715 8.38531C6.3397 8.85522 6.61921 9.26841 6.97569 9.62489L5.59028 11.0103ZM9.72222 8.82281C9.72222 8.82281 9.58854 8.82281 9.32118 8.82281C9.05382 8.82281 8.72975 8.63241 8.34896 8.25163C7.96817 7.87084 7.77778 7.41309 7.77778 6.87836C7.77778 6.34364 7.96817 5.88589 8.34896 5.5051C8.72975 5.12431 9.1875 4.93392 9.72222 4.93392C10.2569 4.93392 10.7147 5.12431 11.0955 5.5051C11.4763 5.88589 11.6667 6.34364 11.6667 6.87836C11.6667 7.41309 11.4763 7.87084 11.0955 8.25163C10.7147 8.63241 10.2569 8.82281 9.72222 8.82281ZM13.8542 11.0103L12.4688 9.62489C12.8252 9.26841 13.1047 8.85522 13.3073 8.38531C13.5098 7.9154 13.6111 7.41309 13.6111 6.87836C13.6111 6.34364 13.5098 5.84133 13.3073 5.37142C13.1047 4.90151 12.8252 4.48832 12.4688 4.13184L13.8542 2.74642C14.3727 3.26494 14.7859 3.87663 15.0938 4.58149C15.4016 5.28635 15.5556 6.05197 15.5556 6.87836C15.5556 7.68855 15.4016 8.44607 15.0938 9.15093C14.7859 9.85579 14.3727 10.4756 13.8542 11.0103ZM16.6007 13.7568L15.2153 12.3714C15.9282 11.6585 16.4873 10.8321 16.8924 9.89225C17.2975 8.95244 17.5 7.94781 17.5 6.87836C17.5 5.79272 17.2975 4.77998 16.8924 3.84017C16.4873 2.90035 15.9282 2.08207 15.2153 1.38531L16.6007 -0.000108719C17.4757 0.874891 18.1684 1.89978 18.6788 3.07454C19.1892 4.24931 19.4444 5.51725 19.4444 6.87836C19.4444 8.22327 19.1892 9.48311 18.6788 10.6579C18.1684 11.8326 17.4757 12.8656 16.6007 13.7568Z" fill="#4BE277"/>
</svg>
