<svg width="20" height="20" viewBox="0 0 20 20" fill="none" xmlns="http://www.w3.org/2000/svg">
<path d="M9.72222 19.4443C9.72222 19.4443 9.386 19.4443 8.71354 19.4443C8.04109 19.4443 7.11343 19.1891 5.93056 18.6787C4.74769 18.1683 3.71875 17.4756 2.84375 16.6006C1.96875 15.7256 1.27604 14.6967 0.765625 13.5138C0.255208 12.3309 0 11.067 0 9.72211C0 8.37721 0.255208 7.11332 0.765625 5.93045C1.27604 4.74758 1.96875 3.71864 2.84375 2.84364C3.71875 1.96864 4.74769 1.27593 5.93056 0.765516C7.11343 0.2551 8.37731 -0.000108719 9.72222 -0.000108719C11.0671 -0.000108719 12.331 0.2551 13.5139 0.765516C14.6968 1.27593 15.7257 1.96864 16.6007 2.84364C17.4757 3.71864 18.1684 4.74758 18.6788 5.93045C19.1892 7.11332 19.4444 8.37721 19.4444 9.72211C19.4444 11.067 19.1892 12.3309 18.6788 13.5138C18.1684 14.6967 17.4757 15.7256 16.6007 16.6006C15.7257 17.4756 14.6968 18.1683 13.5139 18.6787C12.331 19.1891 11.0671 19.4443 9.72222 19.4443ZM8.75 17.4513V15.5554C8.21528 15.5554 7.75752 15.3651 7.37674 14.9843C6.99595 14.6035 6.80556 14.1457 6.80556 13.611V12.6388L2.13889 7.97211C2.09028 8.26378 2.04572 8.55545 2.00521 8.84711C1.9647 9.13878 1.94444 9.43045 1.94444 9.72211C1.94444 11.6828 2.58854 13.4004 3.87674 14.8749C5.16493 16.3494 6.78935 17.2082 8.75 17.4513ZM15.4583 14.9721C16.1227 14.2429 16.6291 13.4287 16.9774 12.5294C17.3258 11.6301 17.5 10.6943 17.5 9.72211C17.5 8.13415 17.0584 6.68392 16.1753 5.37142C15.2922 4.05892 14.1134 3.111 12.6389 2.52767V2.91656C12.6389 3.45128 12.4485 3.90903 12.0677 4.28982C11.6869 4.67061 11.2292 4.861 10.6944 4.861H8.75V6.80545C8.75 7.08091 8.65683 7.31181 8.47049 7.49816C8.28414 7.6845 8.05324 7.77767 7.77778 7.77767H5.83333V9.72211H11.6667C11.9421 9.72211 12.173 9.81528 12.3594 10.0016C12.5457 10.188 12.6389 10.4189 12.6389 10.6943V13.611H13.6111C14.0324 13.611 14.4132 13.7366 14.7535 13.9877C15.0938 14.2389 15.3287 14.567 15.4583 14.9721Z" fill="#64748B"/>
</svg>
